<svg aria-hidden="true" style="position: absolute; width: 0; height: 0; overflow: hidden;" version="1.1" xmlns="http://www.w3.org/2000/svg" xmlns:xlink="http://www.w3.org/1999/xlink">
<defs>
<symbol id="icon-sunset" viewBox="0 0 32 32">
<path d="M11.101 18c0.465-2.283 2.48-4 4.9-4s4.435 1.717 4.899 4h2c-0.49-3.383-3.38-6-6.898-6-3.517 0-6.409 2.617-6.898 6h1.999zM16.001 10c0.552 0 1-0.448 1-1v-2c0-0.552-0.448-1-1-1s-1 0.448-1 1v2c0 0.552 0.448 1 1 1zM25.192 9.807c-0.391-0.391-1.023-0.391-1.414 0l-1.414 1.414c-0.391 0.391-0.391 1.023 0 1.414s1.023 0.391 1.414 0l1.414-1.414c0.391-0.391 0.391-1.023 0-1.414zM9.636 11.221l-1.414-1.414c-0.391-0.391-1.023-0.391-1.414 0s-0.391 1.023 0 1.414l1.414 1.414c0.391 0.391 1.024 0.391 1.414 0s0.391-1.023 0-1.414zM22.001 20h-12c-0.552 0-1 0.448-1 1s0.448 1 1 1h12c0.552 0 1-0.448 1-1s-0.448-1-1-1zM20.001 24h-8c-0.552 0-1 0.448-1 1s0.448 1 1 1h8c0.552 0 1-0.448 1-1s-0.448-1-1-1z"></path>
</symbol>
<symbol id="icon-sunrise" viewBox="0 0 32 32">
<path d="M16 9c-3.859 0-7 3.141-7 7s3.141 7 7 7 7-3.141 7-7c0-3.859-3.141-7-7-7zM16 21c-2.762 0-5-2.238-5-5s2.238-5 5-5 5 2.238 5 5-2.238 5-5 5zM16 7c0.552 0 1-0.448 1-1v-2c0-0.552-0.448-1-1-1s-1 0.448-1 1v2c0 0.552 0.448 1 1 1zM16 25c-0.552 0-1 0.448-1 1v2c0 0.552 0.448 1 1 1s1-0.448 1-1v-2c0-0.552-0.448-1-1-1zM23.777 9.635l1.414-1.414c0.391-0.391 0.391-1.023 0-1.414s-1.023-0.391-1.414 0l-1.414 1.414c-0.391 0.391-0.391 1.023 0 1.414s1.023 0.391 1.414 0zM8.223 22.365l-1.414 1.414c-0.391 0.391-0.391 1.023 0 1.414s1.023 0.391 1.414 0l1.414-1.414c0.391-0.392 0.391-1.023 0-1.414s-1.023-0.392-1.414 0zM7 16c0-0.552-0.448-1-1-1h-2c-0.552 0-1 0.448-1 1s0.448 1 1 1h2c0.552 0 1-0.448 1-1zM28 15h-2c-0.552 0-1 0.448-1 1s0.448 1 1 1h2c0.552 0 1-0.448 1-1s-0.448-1-1-1zM8.221 9.635c0.391 0.391 1.024 0.391 1.414 0s0.391-1.023 0-1.414l-1.414-1.414c-0.391-0.391-1.023-0.391-1.414 0s-0.391 1.023 0 1.414l1.414 1.414zM23.779 22.363c-0.392-0.391-1.023-0.391-1.414 0s-0.392 1.023 0 1.414l1.414 1.414c0.391 0.391 1.023 0.391 1.414 0s0.391-1.023 0-1.414l-1.414-1.414z"></path>
</symbol>
<symbol id="icon-search" viewBox="0 0 32 32">
<path d="M31.008 27.231l-7.58-6.447c-0.784-0.705-1.622-1.029-2.299-0.998 1.789-2.096 2.87-4.815 2.87-7.787 0-6.627-5.373-12-12-12s-12 5.373-12 12 5.373 12 12 12c2.972 0 5.691-1.081 7.787-2.87-0.031 0.677 0.293 1.515 0.998 2.299l6.447 7.58c1.104 1.226 2.907 1.33 4.007 0.23s0.997-2.903-0.23-4.007zM12 20c-4.418 0-8-3.582-8-8s3.582-8 8-8 8 3.582 8 8-3.582 8-8 8z"></path>
</symbol>
<symbol id="icon-keyboard_arrow_right" viewBox="0 0 32 32">
<path d="M11.438 22.125l6.125-6.125-6.125-6.125 1.875-1.875 8 8-8 8z"></path>
</symbol>
<symbol id="icon-keyboard_arrow_left" viewBox="0 0 32 32">
<path d="M20.563 22.125l-1.875 1.875-8-8 8-8 1.875 1.875-6.125 6.125z"></path>
</symbol>
<symbol id="icon-raindrops" viewBox="0 0 32 32">
<path d="M9 11.5c0-1.684 2.511-4.5 2.511-4.5s2.489 2.816 2.489 4.5c0 1.2-0.813 2.5-2.489 2.5s-2.511-1.2-2.511-2.5v0zM19 15.5c0-1.684 2.511-4.5 2.511-4.5s2.489 2.816 2.489 4.5c0 1.2-0.813 2.5-2.489 2.5s-2.511-1.2-2.511-2.5v0zM12 23.5c0-1.684 2.511-4.5 2.511-4.5s2.489 2.816 2.489 4.5c0 1.2-0.813 2.5-2.489 2.5s-2.511-1.2-2.511-2.5v0z"></path>
</symbol>
<symbol id="icon-arrow-down" viewBox="0 0 32 32">
<path d="M24.391 15.057l-7.057 7.057v-15.448c0-0.736-0.597-1.333-1.333-1.333s-1.333 0.597-1.333 1.333v15.448l-7.057-7.057c-0.521-0.521-1.365-0.521-1.885 0s-0.521 1.365 0 1.885l9.333 9.333c0.123 0.123 0.269 0.221 0.432 0.289 0.327 0.135 0.695 0.135 1.021 0 0.157-0.065 0.304-0.161 0.432-0.289l9.333-9.333c0.521-0.521 0.521-1.365 0-1.885s-1.365-0.521-1.885 0z"></path>
</symbol>
</defs>
</svg>
